# xmcd CD database file
#
# Track frame offsets:
#	150
#	21225
#	38775
#	57825
#	78600
#	99625
#	117175
#
# Disc length: 1813 seconds
#
# Revision: 0
# Processed by: cddbd v1.5PL3 Copyright (c) Steve Scherf et al.
# Submitted via: CDex 1.51
#
DISCID=54071307
DTITLE=真田木綿(清水愛) - らいむいろ戦奇譚キャラクターアルバム｢真田木綿(清水愛)｣
DYEAR=2003
DGENRE=Anime
TTITLE0=pure
TTITLE1=ひとつになりたい
TTITLE2=二人の春休み
TTITLE3=ショートストーリー
TTITLE4=pure(カラオケ)
TTITLE5=ひとつになりたい(カラオケ)
TTITLE6=二人の春休み(カラオケ)
EXTD=YEAR: 20030326
EXTT0=
EXTT1=
EXTT2=
EXTT3=
EXTT4=
EXTT5=
EXTT6=
PLAYORDER=
